<svg viewBox="0 0 64 64" fill="none" xmlns="http://www.w3.org/2000/svg">
  <defs>
    <linearGradient id="bg" x1="8" y1="6" x2="56" y2="58" gradientUnits="userSpaceOnUse">
      <stop offset="0" stop-color="#1E3A8A"/>
      <stop offset="0.55" stop-color="#172554"/>
      <stop offset="1" stop-color="#0F172A"/>
    </linearGradient>
    <linearGradient id="gold" x1="24" y1="16" x2="46" y2="44" gradientUnits="userSpaceOnUse">
      <stop offset="0" stop-color="#F4E2A2"/>
      <stop offset="0.5" stop-color="#D4AF37"/>
      <stop offset="1" stop-color="#A87C12"/>
    </linearGradient>
  </defs>
  <rect x="4" y="4" width="56" height="56" rx="16" fill="url(#bg)"/>
  <rect x="5" y="5" width="54" height="54" rx="15" stroke="rgba(255,255,255,0.10)"/>
  <path d="M20 18.5C20 16.843 21.343 15.5 23 15.5H30.5C27.25 18.393 25.25 22.948 25.25 28.95V44.8C23.568 44.068 21.713 43.63 19.7 43.5V18.8C19.7 18.634 19.834 18.5 20 18.5Z" fill="#F8FAFC"/>
  <path d="M31.25 15.5H40.5C42.157 15.5 43.5 16.843 43.5 18.5V43.6C39.554 44.108 36.618 45.658 34.45 48.15L33.5 49.25V28.95C33.5 22.925 35.46 18.376 38.75 15.5H31.25Z" fill="#EEF2FF"/>
  <path d="M28.9 18.2C29.962 16.954 31.027 16.05 32.7 15.5V48.7C31.772 47.38 30.492 46.145 28.9 45.05V18.2Z" fill="url(#gold)"/>
  <rect x="38" y="31" width="3" height="8" rx="1.5" fill="#1D4ED8"/>
  <rect x="42.5" y="25.5" width="3" height="13.5" rx="1.5" fill="url(#gold)"/>
</svg>
