<svg viewBox="0 0 64 64" fill="none" xmlns="http://www.w3.org/2000/svg" role="img" aria-label="SajiloKhata logo">
  <defs>
    <linearGradient id="sk-bg" x1="8" y1="6" x2="56" y2="58" gradientUnits="userSpaceOnUse">
      <stop offset="0" stop-color="#1E3A8A"/>
      <stop offset="0.55" stop-color="#172554"/>
      <stop offset="1" stop-color="#0F172A"/>
    </linearGradient>
    <linearGradient id="sk-gold" x1="20" y1="16" x2="47" y2="48" gradientUnits="userSpaceOnUse">
      <stop offset="0" stop-color="#F3D98B"/>
      <stop offset="0.5" stop-color="#D4AF37"/>
      <stop offset="1" stop-color="#A87C12"/>
    </linearGradient>
    <linearGradient id="sk-page" x1="21" y1="15" x2="43" y2="46" gradientUnits="userSpaceOnUse">
      <stop offset="0" stop-color="#FFFFFF"/>
      <stop offset="1" stop-color="#E8EEF8"/>
    </linearGradient>
    <linearGradient id="sk-sheen" x1="14" y1="10" x2="35" y2="32" gradientUnits="userSpaceOnUse">
      <stop offset="0" stop-color="#FFFFFF" stop-opacity="0.22"/>
      <stop offset="1" stop-color="#FFFFFF" stop-opacity="0"/>
    </linearGradient>
    <filter id="sk-shadow" x="0" y="0" width="64" height="64" filterUnits="userSpaceOnUse" color-interpolation-filters="sRGB">
      <feDropShadow dx="0" dy="9" stdDeviation="8" flood-color="#020617" flood-opacity="0.22"/>
    </filter>
  </defs>

  <g filter="url(#sk-shadow)">
    <rect x="4" y="4" width="56" height="56" rx="16" fill="url(#sk-bg)"/>
    <rect x="5" y="5" width="54" height="54" rx="15" stroke="#FFFFFF" stroke-opacity="0.08" stroke-width="1.2"/>
    <path d="M13 16C13 12.686 15.686 10 19 10H35C28.359 14.024 24.5 21.159 24.5 31.5V54H19C15.686 54 13 51.314 13 48V16Z" fill="url(#sk-sheen)"/>

    <path d="M19.5 18.5C19.5 16.843 20.843 15.5 22.5 15.5H31C27.071 18.816 24.75 23.83 24.75 30.55V45.3C22.983 44.587 21.026 44.16 18.9 44.02V19.1C18.9 18.769 19.169 18.5 19.5 18.5Z" fill="url(#sk-page)"/>
    <path d="M32 15.5H41.5C43.157 15.5 44.5 16.843 44.5 18.5V44.1C40.146 44.625 36.914 46.312 34.6 49.2L33.85 50.15V30.55C33.85 23.82 36.141 18.81 40 15.5H32Z" fill="#F8FAFC"/>
    <path d="M29.2 18.8C30.337 17.35 31.582 16.25 33.25 15.5V49.55C31.819 47.579 30.495 46.147 29.2 45.18V18.8Z" fill="url(#sk-gold)"/>

    <path d="M22.2 23.3H27.2" stroke="#94A3B8" stroke-width="1.7" stroke-linecap="round"/>
    <path d="M22.2 28.7H27.2" stroke="#94A3B8" stroke-width="1.7" stroke-linecap="round"/>
    <path d="M22.2 34.1H27.2" stroke="#94A3B8" stroke-width="1.7" stroke-linecap="round"/>

    <rect x="37.1" y="31.3" width="2.9" height="7.2" rx="1.45" fill="#203A8A"/>
    <rect x="41.2" y="26.4" width="2.9" height="12.1" rx="1.45" fill="#1D4ED8"/>
    <rect x="45.3" y="21.8" width="2.9" height="16.7" rx="1.45" fill="url(#sk-gold)"/>

    <path d="M37.6 41.6H49" stroke="#D4AF37" stroke-opacity="0.6" stroke-width="1.4" stroke-linecap="round"/>
  </g>
</svg>
